<mxfile host="app.diagrams.net" modified="2023-10-30T08:23:26.327Z" agent="Mozilla/5.0 (Windows NT 10.0; Win64; x64) AppleWebKit/537.36 (KHTML, like Gecko) Chrome/118.0.0.0 Safari/537.36" etag="fu9RoSoFPPQ6c9V4L-MK" version="22.0.8" type="google">
  <diagram name="第 1 页" id="-o8DWJOBw--K836MOJ28">
    <mxGraphModel dx="1050" dy="1726" grid="1" gridSize="10" guides="1" tooltips="1" connect="1" arrows="1" fold="1" page="1" pageScale="1" pageWidth="827" pageHeight="1169" math="0" shadow="0">
      <root>
        <mxCell id="0" />
        <mxCell id="1" parent="0" />
        <mxCell id="2z8QmvXyBCBVJ2hRHyyg-1" value="" style="shape=table;startSize=0;container=1;collapsible=0;childLayout=tableLayout;fontSize=16;fillColor=#fff2cc;strokeColor=#FF0000;opacity=30;" vertex="1" parent="1">
          <mxGeometry x="310" y="-182" width="165" height="123.4000244140625" as="geometry" />
        </mxCell>
        <mxCell id="2z8QmvXyBCBVJ2hRHyyg-2" value="" style="shape=tableRow;horizontal=0;startSize=0;swimlaneHead=0;swimlaneBody=0;strokeColor=#FF0000;top=0;left=0;bottom=0;right=0;collapsible=0;dropTarget=0;fillColor=#fff2cc;points=[[0,0.5],[1,0.5]];portConstraint=eastwest;fontSize=16;opacity=30;" vertex="1" parent="2z8QmvXyBCBVJ2hRHyyg-1">
          <mxGeometry width="165" height="33" as="geometry" />
        </mxCell>
        <mxCell id="2z8QmvXyBCBVJ2hRHyyg-3" value="Computer" style="shape=partialRectangle;html=1;whiteSpace=wrap;connectable=0;strokeColor=#FF0000;overflow=hidden;fillColor=#fff2cc;top=0;left=0;bottom=0;right=0;pointerEvents=1;fontSize=16;opacity=30;" vertex="1" parent="2z8QmvXyBCBVJ2hRHyyg-2">
          <mxGeometry width="165" height="33" as="geometry">
            <mxRectangle width="165" height="33" as="alternateBounds" />
          </mxGeometry>
        </mxCell>
        <mxCell id="2z8QmvXyBCBVJ2hRHyyg-4" value="" style="shape=tableRow;horizontal=0;startSize=0;swimlaneHead=0;swimlaneBody=0;strokeColor=#FF0000;top=0;left=0;bottom=0;right=0;collapsible=0;dropTarget=0;fillColor=#fff2cc;points=[[0,0.5],[1,0.5]];portConstraint=eastwest;fontSize=16;opacity=30;" vertex="1" parent="2z8QmvXyBCBVJ2hRHyyg-1">
          <mxGeometry y="33" width="165" height="58" as="geometry" />
        </mxCell>
        <mxCell id="2z8QmvXyBCBVJ2hRHyyg-5" value="&lt;div style=&quot;direction: ltr;&quot;&gt;&lt;span style=&quot;background-color: initial;&quot;&gt;cpu:string&lt;/span&gt;&lt;/div&gt;&lt;div style=&quot;direction: ltr;&quot;&gt;&lt;span style=&quot;background-color: initial;&quot;&gt;memory:string&lt;/span&gt;&lt;/div&gt;" style="shape=partialRectangle;html=1;whiteSpace=wrap;connectable=0;strokeColor=#FF0000;overflow=hidden;fillColor=#fff2cc;top=0;left=0;bottom=0;right=0;pointerEvents=1;fontSize=16;opacity=30;" vertex="1" parent="2z8QmvXyBCBVJ2hRHyyg-4">
          <mxGeometry width="165" height="58" as="geometry">
            <mxRectangle width="165" height="58" as="alternateBounds" />
          </mxGeometry>
        </mxCell>
        <mxCell id="2z8QmvXyBCBVJ2hRHyyg-6" value="" style="shape=tableRow;horizontal=0;startSize=0;swimlaneHead=0;swimlaneBody=0;strokeColor=#FF0000;top=0;left=0;bottom=0;right=0;collapsible=0;dropTarget=0;fillColor=#fff2cc;points=[[0,0.5],[1,0.5]];portConstraint=eastwest;fontSize=16;opacity=30;" vertex="1" parent="2z8QmvXyBCBVJ2hRHyyg-1">
          <mxGeometry y="91" width="165" height="32" as="geometry" />
        </mxCell>
        <mxCell id="2z8QmvXyBCBVJ2hRHyyg-7" value="run()" style="shape=partialRectangle;html=1;whiteSpace=wrap;connectable=0;strokeColor=#FF0000;overflow=hidden;fillColor=#fff2cc;top=0;left=0;bottom=0;right=0;pointerEvents=1;fontSize=16;opacity=30;" vertex="1" parent="2z8QmvXyBCBVJ2hRHyyg-6">
          <mxGeometry width="165" height="32" as="geometry">
            <mxRectangle width="165" height="32" as="alternateBounds" />
          </mxGeometry>
        </mxCell>
        <mxCell id="2z8QmvXyBCBVJ2hRHyyg-8" value="" style="endArrow=none;html=1;rounded=0;fontSize=12;startSize=8;endSize=8;curved=1;entryX=0;entryY=0.5;entryDx=0;entryDy=0;exitX=1;exitY=0.5;exitDx=0;exitDy=0;fillColor=#fff2cc;strokeColor=#FF0000;" edge="1" parent="1" source="2z8QmvXyBCBVJ2hRHyyg-12" target="2z8QmvXyBCBVJ2hRHyyg-4">
          <mxGeometry width="50" height="50" relative="1" as="geometry">
            <mxPoint x="262" y="-25.30000000000001" as="sourcePoint" />
            <mxPoint x="312" y="-75.30000000000001" as="targetPoint" />
          </mxGeometry>
        </mxCell>
        <mxCell id="2z8QmvXyBCBVJ2hRHyyg-9" value="" style="shape=table;startSize=0;container=1;collapsible=0;childLayout=tableLayout;fontSize=16;fillColor=#fff2cc;strokeColor=#FF0000;opacity=30;swimlaneLine=1;" vertex="1" parent="1">
          <mxGeometry x="80" y="-163" width="129" height="94.85003662109352" as="geometry" />
        </mxCell>
        <mxCell id="2z8QmvXyBCBVJ2hRHyyg-10" value="" style="shape=tableRow;horizontal=0;startSize=0;swimlaneHead=0;swimlaneBody=0;strokeColor=#FF0000;top=0;left=0;bottom=0;right=0;collapsible=0;dropTarget=0;fillColor=#fff2cc;points=[[0,0.5],[1,0.5]];portConstraint=eastwest;fontSize=16;opacity=30;swimlaneLine=1;" vertex="1" parent="2z8QmvXyBCBVJ2hRHyyg-9">
          <mxGeometry width="129" height="24" as="geometry" />
        </mxCell>
        <mxCell id="2z8QmvXyBCBVJ2hRHyyg-11" value="Person" style="shape=partialRectangle;html=1;whiteSpace=wrap;connectable=0;strokeColor=#FF0000;overflow=hidden;fillColor=#fff2cc;top=0;left=0;bottom=0;right=0;pointerEvents=1;fontSize=16;opacity=30;swimlaneLine=1;" vertex="1" parent="2z8QmvXyBCBVJ2hRHyyg-10">
          <mxGeometry width="129" height="24" as="geometry">
            <mxRectangle width="129" height="24" as="alternateBounds" />
          </mxGeometry>
        </mxCell>
        <mxCell id="2z8QmvXyBCBVJ2hRHyyg-12" value="" style="shape=tableRow;horizontal=0;startSize=0;swimlaneHead=0;swimlaneBody=0;strokeColor=#FF0000;top=0;left=0;bottom=0;right=0;collapsible=0;dropTarget=0;fillColor=#fff2cc;points=[[0,0.5],[1,0.5]];portConstraint=eastwest;fontSize=16;opacity=30;swimlaneLine=1;" vertex="1" parent="2z8QmvXyBCBVJ2hRHyyg-9">
          <mxGeometry y="24" width="129" height="36" as="geometry" />
        </mxCell>
        <mxCell id="2z8QmvXyBCBVJ2hRHyyg-13" value="name:string" style="shape=partialRectangle;html=1;whiteSpace=wrap;connectable=0;strokeColor=#FF0000;overflow=hidden;fillColor=#fff2cc;top=0;left=0;bottom=0;right=0;pointerEvents=1;fontSize=16;opacity=30;swimlaneLine=1;" vertex="1" parent="2z8QmvXyBCBVJ2hRHyyg-12">
          <mxGeometry width="129" height="36" as="geometry">
            <mxRectangle width="129" height="36" as="alternateBounds" />
          </mxGeometry>
        </mxCell>
        <mxCell id="2z8QmvXyBCBVJ2hRHyyg-14" value="" style="shape=tableRow;horizontal=0;startSize=0;swimlaneHead=0;swimlaneBody=0;strokeColor=#FF0000;top=0;left=0;bottom=0;right=0;collapsible=0;dropTarget=0;fillColor=#fff2cc;points=[[0,0.5],[1,0.5]];portConstraint=eastwest;fontSize=16;opacity=30;swimlaneLine=1;" vertex="1" parent="2z8QmvXyBCBVJ2hRHyyg-9">
          <mxGeometry y="60" width="129" height="35" as="geometry" />
        </mxCell>
        <mxCell id="2z8QmvXyBCBVJ2hRHyyg-15" value="UseComputer()" style="shape=partialRectangle;html=1;whiteSpace=wrap;connectable=0;strokeColor=#FF0000;overflow=hidden;fillColor=#fff2cc;top=0;left=0;bottom=0;right=0;pointerEvents=1;fontSize=16;opacity=30;swimlaneLine=1;" vertex="1" parent="2z8QmvXyBCBVJ2hRHyyg-14">
          <mxGeometry width="129" height="35" as="geometry">
            <mxRectangle width="129" height="35" as="alternateBounds" />
          </mxGeometry>
        </mxCell>
      </root>
    </mxGraphModel>
  </diagram>
</mxfile>
